<?xml version="1.0" encoding="UTF-8"?>
<!DOCTYPE svg PUBLIC "-//W3C//DTD SVG 1.1//EN" "http://www.w3.org/Graphics/SVG/1.1/DTD/svg11.dtd">
<!-- Creator: CorelDRAW 2021 (64 Bit) -->
<svg xmlns="http://www.w3.org/2000/svg" xml:space="preserve" width="221.983mm" height="121.855mm" version="1.1" style="shape-rendering:geometricPrecision; text-rendering:geometricPrecision; image-rendering:optimizeQuality; fill-rule:evenodd; clip-rule:evenodd"
viewBox="0 0 22198.26 12185.5"
 xmlns:xlink="http://www.w3.org/1999/xlink"
 xmlns:xodm="http://www.corel.com/coreldraw/odm/2003">
 <defs>
  <style type="text/css">
   <![CDATA[
    .fil2 {fill:#3F3D56;fill-rule:nonzero}
    .fil5 {fill:#5433CC;fill-rule:nonzero}
    .fil6 {fill:#6C63FF;fill-rule:nonzero}
    .fil1 {fill:#CCCCCC;fill-rule:nonzero}
    .fil0 {fill:#E6E6E6;fill-rule:nonzero}
    .fil7 {fill:#E6E8EC;fill-rule:nonzero}
    .fil4 {fill:#F2F2F2;fill-rule:nonzero}
    .fil3 {fill:white;fill-rule:nonzero}
   ]]>
  </style>
 </defs>
 <g id="desktop">
  <metadata id="CorelCorpID_0Corel-Layer"/>
  <g id="monitor">
   <path class="fil0" d="M16648.32 12008.53l-323.24 -136.1 -221.72 -1620.38 -2952.84 0 -240.34 1613.75 -289.18 144.6c-23.24,11.61 -37.96,35.39 -37.96,61.4 0,37.93 30.75,68.68 68.68,68.68 0,0 0,0 0,0l3969.96 0.01c0,-0.01 0.02,-0.01 0.02,-0.01 37.91,0 68.66,-30.75 68.66,-68.67 0,-27.63 -16.57,-52.57 -42.04,-63.29l0 0.01z"/>
   <path class="fil1" d="M21895.71 10467.62l-14505.12 0c-158.42,-0.3 -286.72,-128.92 -286.72,-287.38l-0.02 -2045.39 15078.59 0 0 2045.41c-0.01,158.42 -128.31,287.04 -286.76,287.36l0.03 0z"/>
   <path class="fil2" d="M22197.6 9101.55l-15106.98 0 0 -8751.88c0.18,-191.19 155.23,-346.24 346.45,-346.42l14414.08 0c191.22,0.16 346.25,155.18 346.45,346.4l0 8751.9z"/>
   <path class="fil3" d="M21295.32 8466.34l-13302.42 0c-147.41,-0.13 -266.94,-119.66 -267.07,-267.07l0 -7293.77c0.13,-147.39 119.66,-266.92 267.09,-267.05l13302.4 0c147.41,0.13 266.94,119.66 267.08,267.08l0 7293.75c-0.14,147.4 -119.67,266.93 -267.08,267.06l0 0z"/>
   <path class="fil1" d="M18374.78 12157.39l-7474.82 0c-0.22,0 -0.47,0 -0.72,0 -15.47,0 -29.09,-10.25 -33.36,-25.13 -0.74,-2.8 -1.11,-5.71 -1.11,-8.63 0,-18.69 15.14,-33.86 33.85,-33.87l7473.41 0c0.38,0 0.81,-0.02 1.22,-0.02 16.18,0 30.34,10.85 34.55,26.46 0.54,2.41 0.8,4.88 0.8,7.33 0,18.68 -15.14,33.84 -33.83,33.86l0.01 0z"/>
   <circle class="fil3" cx="14726.71" cy="323.85" r="119.81"/>
  </g>
  <g id="_1231274517856">
   <path class="fil4" d="M21223.37 8471.09l-13207.35 0c-187.11,-0.15 -299.04,-133.63 -299.04,-298.24l-0.01 -7141.8c0.14,-120.57 111.31,-218.36 248.4,-218.47l13344.36 -0.01c139.46,0.11 252.55,99.59 252.67,222.26l0 7138.05c-0.16,164.58 -60.19,298.19 -247.31,298.2l-91.72 0.01z"/>
   <path class="fil3" d="M20797.64 8094.57l-12271.64 0c-179.89,0 -326.24,-120.55 -326.24,-268.72l0 -6219.19c0,-109.89 108.45,-199.29 241.75,-199.29l12436.61 0c135.51,0 245.76,90.88 245.76,202.58l0 6215.9c0.01,148.17 -146.35,268.72 -326.24,268.72z"/>
   <path class="fil2" d="M21579.54 1070.3l-13867.2 -1.72 4.12 -150.11c0.3,-165.15 117.67,-298.58 305.42,-298.63l13274.32 -3.83c187.76,0.15 283.39,137.32 283.37,302.46l-0.03 151.83z"/>
   <ellipse class="fil3" cx="8330.58" cy="843.2" rx="88.01" ry="77.42"/>
   <ellipse class="fil3" cx="8664.66" cy="843.2" rx="88.01" ry="77.42"/>
   <ellipse class="fil3" cx="8998.73" cy="843.2" rx="88.01" ry="77.42"/>
   <path class="fil1" d="M14370.69 2767.2l-2400.07 0c-74.49,0.01 -134.91,-53.14 -134.91,-118.67 0,-65.53 60.42,-118.67 134.91,-118.67l2400.07 -0.01c74.49,0.01 134.91,53.15 134.91,118.68 0,65.53 -60.42,118.68 -134.91,118.68l0 -0.01z"/>
   <path class="fil1" d="M17353.02 2767.2l-2400.07 0c-74.49,0.01 -134.91,-53.14 -134.91,-118.67 0,-65.53 60.42,-118.67 134.91,-118.67l2400.07 -0.01c74.49,0.01 134.91,53.15 134.91,118.68 0,65.53 -60.42,118.68 -134.92,118.68l0.01 -0.01z"/>
   <path class="fil1" d="M17353.02 3216.91l-4175.27 0c-74.49,0 -134.91,-53.14 -134.91,-118.67 0,-65.53 60.42,-118.67 134.91,-118.67l4175.27 0c74.49,0 134.91,53.14 134.91,118.67 0,65.53 -60.42,118.67 -134.92,118.67l0.01 0z"/>
   <path class="fil1" d="M14370.69 2311.25l-2400.07 0c-74.43,-0.08 -134.75,-53.2 -134.75,-118.68 0,-65.47 60.32,-118.59 134.75,-118.67l2400.07 0c0.04,0 0.11,0 0.16,0 74.5,0 134.92,53.14 134.92,118.67 0,65.53 -60.42,118.68 -134.92,118.68 -0.05,0 -0.12,0 -0.16,0z"/>
   <path class="fil1" d="M15691.44 2317.49l-681.68 0c-74.5,0.01 -134.92,-53.14 -134.92,-118.67 0,-65.52 60.42,-118.67 134.92,-118.67l681.68 -0.01c74.49,0.01 134.91,53.16 134.91,118.68 0,65.53 -60.42,118.68 -134.92,118.68l0.01 -0.01z"/>
   <path class="fil1" d="M12652.29 3216.91l-681.67 0c-74.43,-0.07 -134.75,-53.2 -134.75,-118.67 0,-65.47 60.32,-118.6 134.75,-118.67l681.67 0c0.05,0 0.12,0 0.17,0 74.49,0 134.91,53.14 134.91,118.67 0,65.53 -60.42,118.67 -134.91,118.67 -0.05,0 -0.12,0 -0.17,0l0 0z"/>
   <path class="fil1" d="M14370.69 6978.33l-2400.07 0c-74.49,-0.01 -134.91,-53.15 -134.91,-118.68 0,-65.53 60.42,-118.68 134.91,-118.68l2400.07 0.02c74.49,-0.02 134.91,53.13 134.91,118.66 0,65.53 -60.42,118.67 -134.91,118.67l0 0.01z"/>
   <path class="fil1" d="M17353.02 6978.33l-2400.07 0c-74.49,-0.01 -134.91,-53.15 -134.91,-118.68 0,-65.53 60.42,-118.68 134.91,-118.68l2400.07 0.02c74.49,-0.02 134.91,53.13 134.91,118.66 0,65.53 -60.42,118.67 -134.92,118.67l0.01 0.01z"/>
   <path class="fil1" d="M17353.02 7428.04l-4175.27 0c-74.49,-0.01 -134.91,-53.15 -134.91,-118.68 0,-65.53 60.42,-118.68 134.91,-118.68l4175.27 0.02c0.05,-0.02 0.12,-0.02 0.17,-0.02 74.49,0 134.91,53.15 134.91,118.68 0,65.53 -60.42,118.67 -134.91,118.67 -0.05,0 -0.12,0 -0.17,0l0 0.01z"/>
   <path class="fil1" d="M14370.69 6522.38l-2400.07 0c-74.49,-0.01 -134.91,-53.15 -134.91,-118.68 0,-65.53 60.42,-118.68 134.91,-118.68l2400.07 0.01c74.49,-0.01 134.91,53.14 134.91,118.67 0,65.53 -60.42,118.67 -134.91,118.67l0 0.01z"/>
   <path class="fil1" d="M15691.44 6528.62l-681.68 0c-74.5,-0.01 -134.92,-53.15 -134.92,-118.68 0,-65.53 60.42,-118.67 134.92,-118.67l681.68 0c74.49,0 134.91,53.14 134.91,118.67 0,65.53 -60.42,118.67 -134.92,118.67l0.01 0.01z"/>
   <path class="fil1" d="M12652.29 7428.04l-681.67 0c-74.49,-0.01 -134.91,-53.15 -134.91,-118.68 0,-65.53 60.42,-118.68 134.91,-118.68l681.67 0.02c0.05,-0.02 0.12,-0.02 0.17,-0.02 74.49,0 134.91,53.15 134.91,118.68 0,65.53 -60.42,118.67 -134.91,118.67 -0.05,0 -0.12,0 -0.17,0l0 0.01z"/>
   <path class="fil5" d="M13743.86 5704.28c-0.13,0 -0.3,0 -0.44,0 -50.77,0 -99.54,-17.61 -135.66,-48.98l-902.19 -783.65c-35.76,-31.07 -55.92,-73.48 -55.92,-117.7 0,-44.22 20.16,-86.63 55.93,-117.69l898.55 -780.5c37.26,-32.18 87.47,-50.27 139.71,-50.27 52.69,0 103.29,18.37 140.62,51.05l0 0.01c37.19,32.82 58.14,77.31 58.14,123.68 0,46.37 -20.93,90.86 -58.13,123.67l-667.7 587.34c-20.8,18.33 -32.49,43.21 -32.49,69.1 0,25.9 11.69,50.78 32.48,69.11l664.08 584.14c36.35,31.91 56.81,75.27 56.81,120.47 0,94 -86.65,170.22 -193.51,170.22 -0.07,0 -0.21,0 -0.28,0z"/>
   <path class="fil5" d="M15181.45 5704.28c-0.07,0 -0.2,0 -0.27,0 -106.85,0 -193.51,-76.22 -193.51,-170.22 0,-45.2 20.46,-88.56 56.81,-120.48l664.07 -584.13c20.79,-18.33 32.49,-43.21 32.49,-69.11 0,-25.89 -11.7,-50.77 -32.49,-69.1l-667.7 -587.32c-37.26,-32.78 -58.24,-77.31 -58.24,-123.69 0,-46.38 20.98,-90.91 58.24,-123.68l0 0c37.33,-32.69 87.93,-51.06 140.62,-51.06 52.25,0 102.46,18.09 139.72,50.28l898.55 780.5c35.77,31.05 55.92,73.46 55.92,117.68 0,44.22 -20.15,86.63 -55.92,117.69l-902.2 783.65c-36.12,31.38 -84.88,48.99 -135.67,48.99 -0.11,0 -0.3,0 -0.42,0l0 0z"/>
  </g>
 </g>
 <g id="laptop">
  <metadata id="CorelCorpID_1Corel-Layer"/>
  <path class="fil2" d="M14579.63 3584.37l-12787.56 0c0,-0.01 0,-0.01 0,-0.01 -194.35,0 -351.97,157.61 -351.97,351.97l0 7124.99c0,0 0,0 0,0 0,194.35 157.62,351.97 351.97,351.97l12787.56 0.01c194.35,-0.01 351.96,-157.63 351.96,-351.98 0,0 0,0 0,0l0.01 -7124.98c-0.01,-194.37 -157.62,-351.98 -351.98,-351.98l0.01 0.01z"/>
  <g id="_1231274570144">
   <g id="f1503154-f50a-4680-8aa4-587be41cac87" data-name="Group 2">
    <rect id="e1abf0e4-070b-4c82-8a12-ebedd4e3db02" class="fil0" x="1917.36" y="4212.61" width="12542.37" height="7014.03" data-name="Rectangle 1"/>
    <rect id="ace8bea0-82e8-49b8-a50c-1e1cb532084f" class="fil3" x="2317.02" y="5092.34" width="11825.08" height="5719.34" data-name="Rectangle 2"/>
    <rect id="b540f353-e277-4512-bc56-a133cea2858b" class="fil6" x="1917.36" y="4206.39" width="12542.37" height="465.27" data-name="Rectangle 3"/>
    <ellipse id="b2b285b5-c1c3-4b12-9710-2898c7239781" class="fil3" cx="2307.97" cy="4444.27" rx="98.76" ry="86.24" data-name="Ellipse 3"/>
    <ellipse id="a5a428bb-42a2-4f57-9e6c-9979c01a2490" class="fil3" cx="2682.83" cy="4444.27" rx="98.76" ry="86.24" data-name="Ellipse 4"/>
    <ellipse id="a9929a25-14ce-4464-bac9-4165f1e3fae6" class="fil3" cx="3057.69" cy="4444.27" rx="98.76" ry="86.24" data-name="Ellipse 5"/>
    <polygon id="b4a2d72b-abc3-4d2f-a2b8-a2aff6897b26" class="fil6" points="4385.85,5893.97 3603.66,6568.44 4385.85,7242.9 4561.84,7089.22 3970.37,6572.69 4566.78,6051.92 " data-name="Path 37"/>
    <polygon id="b5120d89-6cbe-4bfa-9a1b-cf9b07deff91" class="fil6" points="5026.75,5893.97 5808.92,6568.44 5026.75,7242.9 4850.76,7089.22 5442.27,6572.71 4845.81,6051.91 " data-name="Path 38"/>
    <path id="a31271bd-8e2f-469b-8cee-8b6db3f92f99" class="fil0" d="M7556.8 6063.23c-63.97,0 -115.83,32.13 -115.83,71.75 0,39.61 51.86,71.75 115.83,71.75l5460.62 0.01c63.97,0 115.83,-32.14 115.83,-71.75 0,-39.62 -51.86,-71.75 -115.83,-71.75l-5460.62 -0.01z" data-name="Path 65"/>
    <path id="bf577952-0fd5-43e0-be6b-ea1966b51a93" class="fil0" d="M12963.12 9994.29l-9186.11 0c-93.91,0 -170.01,-47.33 -170.11,-105.67l0 -1415.71c0.1,-58.33 76.2,-105.67 170.11,-105.67l9186.11 -0.01c93.91,0 170.01,47.34 170.11,105.67l0 1415.7c-0.09,58.34 -76.2,105.63 -170.11,105.69zm-9186.11 -1584.82c-56.35,0 -102.01,28.4 -102.07,63.4l0 1415.69c0,35 45.72,63.37 102.07,63.4l9186.11 0.01c56.35,0 102.01,-28.4 102.07,-63.4l0 -1415.66c0,-35 -45.72,-63.37 -102.07,-63.4l-9186.11 -0.04z" data-name="Path 78"/>
    <ellipse id="f7f4957b-eaa8-456b-bf02-bacf7de3ef80" class="fil0" cx="4722.97" cy="9180.16" rx="410.98" ry="358.86" data-name="Ellipse 13"/>
    <path id="fb0f055d-da6e-47f2-bb6d-7ff26d7b746a" class="fil6" d="M5882.11 8893.15c-0.02,0 -0.07,0 -0.1,0 -45.37,0 -82.17,32.13 -82.17,71.75 0,39.59 36.73,71.7 82.06,71.75l3874.15 0c45.37,0 82.17,-32.13 82.17,-71.75 0,-39.62 -36.8,-71.75 -82.17,-71.75l-3873.94 0z" data-name="Path 79"/>
    <path id="bfcde504-8c45-4d21-843b-87b1f7e22ce0" class="fil6" d="M5882.11 9323.68c-0.02,-0.01 -0.07,-0.01 -0.1,-0.01 -45.37,0 -82.17,32.13 -82.17,71.75 0,39.59 36.73,71.7 82.06,71.75l1667.15 0.01c0.03,-0.01 0.08,-0.01 0.11,-0.01 45.37,0 82.17,-32.13 82.17,-71.75 0,-39.58 -36.73,-71.7 -82.06,-71.75l-1667.16 0.01z" data-name="Path 80"/>
    <path id="a66699ea-75f1-4575-b6d5-52b0b1f8e30c" class="fil0" d="M7516.92 6493.09c-42.81,3.01 -75.81,34.25 -75.81,71.76 0,37.51 33,68.75 75.82,71.75l3578.75 0c42.8,-3 75.8,-34.24 75.8,-71.75 0,-37.51 -33,-68.75 -75.82,-71.76l-3578.74 0z" data-name="Path 81"/>
    <path id="bbc4ca7b-25d4-4c7e-b3d4-0411f69bd48f" class="fil0" d="M7540.48 6922.95c-54.96,0 -99.51,32.14 -99.51,71.75 0,39.62 44.55,71.75 99.51,71.75l4691.12 0.01c54.95,0 99.5,-32.14 99.5,-71.75 0,-39.62 -44.55,-71.75 -99.5,-71.75l-4691.12 -0.01z" data-name="Path 82"/>
   </g>
  </g>
  <circle class="fil3" cx="8175.12" cy="3884.66" r="128.69"/>
  <path class="fil2" d="M15283.91 11155.91l-1224.58 0 0 -88.23c-0.01,-0.01 -0.01,-0.01 -0.01,-0.01 0,-9.66 -7.83,-17.49 -17.49,-17.49l-419.85 0c-0.01,0 -0.01,0 -0.01,0 -9.66,0 -17.49,7.83 -17.49,17.49l0 88.23 -262.4 0.01 0 -88.23c-0.01,-0.01 -0.01,-0.01 -0.01,-0.01 0,-9.66 -7.83,-17.49 -17.49,-17.49 0,0 0,0 0,0l-419.85 0c-0.01,0 -0.01,0 -0.01,0 -9.66,0 -17.49,7.83 -17.49,17.49 0,0 0,0 0,0l0.01 0.01 0 88.23 -262.41 0 0 -88.23c-0.01,-0.01 -0.01,-0.01 -0.01,-0.01 0,-9.66 -7.83,-17.49 -17.49,-17.49 0,0 0,0 0,0l-419.85 0c-0.01,0 -0.01,0 -0.01,0 -9.66,0 -17.49,7.83 -17.49,17.49 0,0 0,0 0,0l0 0.01 0 88.23 -262.4 0 0 -88.23c-0.01,-0.01 -0.01,-0.01 -0.01,-0.01 0,-9.66 -7.83,-17.49 -17.49,-17.49 0,0 0,0 0,0l-419.85 0c-0.01,0 -0.01,0 -0.01,0 -9.66,0 -17.49,7.83 -17.49,17.49l0 88.23 -262.4 0.01 0 -88.23c-0.01,-0.01 -0.01,-0.01 -0.01,-0.01 0,-9.66 -7.83,-17.49 -17.49,-17.49 0,0 0,0 0,0l-419.85 0c-0.01,0 -0.01,0 -0.01,0 -9.66,0 -17.49,7.83 -17.49,17.49 0,0 0,0 0,0l0 0.01 0 88.23 -262.41 0 0 -88.23c-0.01,-0.01 -0.01,-0.01 -0.01,-0.01 0,-9.66 -7.83,-17.49 -17.49,-17.49 0,0 0,0 0,0l-419.85 0c0,0 0,0 0,0 -9.66,0 -17.49,7.83 -17.49,17.49 0,0 0,0 0,0l0 0.01 0 88.23 -262.41 0 0 -88.23c-0.01,-0.01 -0.01,-0.01 -0.01,-0.01 0,-9.66 -7.83,-17.49 -17.49,-17.49 0,0 0,0 0,0l-3288.86 0c0,0 0,0 0,0 -9.66,0 -17.5,7.83 -17.5,17.49 0,0 0,0 0,0l0 0.01 0 88.23 -262.41 0 0 -88.23c0,-0.01 0,-0.01 0,-0.01 0,-9.66 -7.84,-17.49 -17.5,-17.49 0,0 0,0 0,0l-419.85 0c0,0 0,0 0,0 -9.66,0 -17.49,7.83 -17.49,17.49 0,0 0,0 0,0l0 0.01 0 88.23 -262.41 0 0 -88.23c0,-0.01 0,-0.01 0,-0.01 0,-9.66 -7.83,-17.49 -17.49,-17.49l-419.86 0c0,0 0,0 0,0 -9.66,0 -17.49,7.83 -17.49,17.49 0,0 0,0 0,0l0 0.01 0 88.23 -262.41 0 0 -88.23c0,-0.01 0,-0.01 0,-0.01 0,-9.66 -7.83,-17.49 -17.49,-17.49 0,0 0,0 0,0l-419.86 0c0,0 0,0 0,0 -9.66,0 -17.49,7.83 -17.49,17.49 0,0 0,0 0,0l-0.01 0.01 0 88.23 -262.41 0 0 -88.23c0.01,-0.01 0.01,-0.01 0.01,-0.01 0,-9.66 -7.83,-17.49 -17.49,-17.49 0,0 0,0 0,0l-419.87 0c0.02,0 0.02,0 0.02,0 -9.66,0 -17.49,7.83 -17.49,17.49 0,0 0,0 0,0l-0.02 0.01 0 88.23 -262.41 0 0 -88.23c0.01,-0.01 0.01,-0.01 0.01,-0.01 0,-9.66 -7.83,-17.49 -17.49,-17.49 0,0 0,0 0,0l-419.87 0c0.01,0 0.01,0 0.01,0 -9.66,0 -17.49,7.83 -17.49,17.49l0 88.23 -262.42 0.01 0 -88.23c0.01,-0.01 0.01,-0.01 0.01,-0.01 0,-9.66 -7.83,-17.49 -17.49,-17.49l-419.87 0c-9.65,0 -17.48,7.83 -17.48,17.49l-0.01 0.01 0 88.23 -804.72 0c-231.84,-0.01 -419.85,188 -419.85,419.84l0 189.85c0,231.84 188.01,419.85 419.85,419.85l13960.18 0.02c231.84,-0.02 419.85,-188.03 419.85,-419.87l0.01 -189.83c-0.01,-0.02 -0.01,-0.02 -0.01,-0.02 0,-231.84 -188.01,-419.85 -419.86,-419.85l0.01 0.01z"/>
 </g>
 <g id="mobile">
  <metadata id="CorelCorpID_2Corel-Layer"/>
  <g id="_1231274560160">
   <path class="fil2" d="M3169.48 7348.3l0 713.11c-0.03,13.71 -11.14,24.83 -24.86,24.86l-17.7 0.01 0 3714.86c0.01,214.02 -173.58,387.61 -387.62,387.61l-2321.2 0c-214,-0.01 -387.49,-173.55 -387.49,-387.55 0,0 0,-0.09 0,-0.09l-0.01 -3584.54 -12.81 0c0,-0.01 -0.01,-0.01 -0.02,-0.01 -9.67,0 -17.52,-7.82 -17.56,-17.48l-0.01 -405.85c0.01,0 0.01,0 0.01,0 0,-9.71 7.87,-17.59 17.58,-17.59 0,0 0,0 0,0l12.81 0.01 0 -152.88 -12.92 0c-10.14,-0.04 -18.34,-8.28 -18.34,-18.42 0,-0.01 0,-0.03 0,-0.04l-0.01 -400.31c0.03,-10.12 8.23,-18.32 18.35,-18.35l12.92 0 0 -208.68 -13.13 0c-0.01,0 -0.02,0 -0.02,0 -8.98,0 -16.27,-7.28 -16.27,-16.26 0,0 0,-0.02 0,-0.02l0 -218.45c0,-0.02 0,-0.03 0,-0.04 0,-9 7.28,-16.32 16.29,-16.36l13.13 0 0 -442.33c0.01,-213.96 173.54,-387.5 387.52,-387.5l2321.19 0c0.01,0 0.01,0 0.01,0 213.98,0 387.56,173.53 387.6,387.51l0 1039.93 17.7 -0.01c13.72,0.03 24.83,11.14 24.87,24.86l-0.01 0z"/>
   <path class="fil7" d="M1313.36 6094.78l377.18 0c15.24,0 27.6,12.35 27.6,27.59l0 32.6c0,15.24 -12.36,27.6 -27.59,27.6l-377.19 0c-15.24,0 -27.59,-12.36 -27.59,-27.6l-0.01 -32.6c0.01,-15.24 12.36,-27.59 27.6,-27.59z"/>
   <circle class="fil7" cx="1833.31" cy="6138.67" r="49.8"/>
   <path class="fil3" d="M2941.32 6360.16l0 5473.12c-0.07,135.76 -110.16,245.8 -245.93,245.8l-2221.97 0.01c-0.12,-0.01 -0.3,-0.01 -0.42,-0.01 -135.56,0 -245.5,-109.93 -245.5,-245.49 0,-0.09 0,-0.24 0,-0.33l0 -5473.11c0,0 0,0 0,0 0,-135.79 110.12,-245.91 245.92,-245.91 0,0 0,0 0,0l332.56 0 0 42.67c0.01,111.82 90.69,202.49 202.5,202.49l1130.04 0c111.81,0 202.49,-90.67 202.49,-202.49l0 -42.67 354.38 0c0,0 0.09,0 0.09,0 135.75,0 245.84,110.09 245.84,245.84 0,0 0,0.1 0,0.1l0 -0.02z"/>
   <circle class="fil3" cx="2594.31" cy="6782.3" r="217.15"/>
   <polygon class="fil2" points="2692.03,6775.32 2601.29,6775.32 2601.29,6684.58 2587.33,6684.58 2587.33,6775.32 2496.59,6775.32 2496.59,6789.28 2587.33,6789.28 2587.33,6880.02 2601.29,6880.02 2601.29,6789.28 2692.03,6789.28 "/>
  </g>
  <g id="_1231276477296">
   <path class="fil3" d="M1422.64 8130.43l-750.83 0c-10.45,-0.01 -18.92,-8.48 -18.93,-18.93l0 -441.66c0.01,-10.45 8.48,-18.92 18.93,-18.93l750.83 0c10.45,0.01 18.92,8.48 18.93,18.93l0 441.66c-0.01,10.45 -8.48,18.92 -18.93,18.93l0 0z"/>
   <path class="fil2" d="M2420.63 7316.51l-1776.84 0c-6.97,0 -12.62,-5.65 -12.62,-12.62 0,-6.97 5.65,-12.62 12.62,-12.62l1776.84 0c6.97,0 12.62,5.65 12.62,12.62 0,6.97 -5.65,12.62 -12.62,12.62l0 0z"/>
   <path class="fil2" d="M2420.63 7512.1l-1776.84 0c-6.97,0 -12.62,-5.65 -12.62,-12.62 0,-6.96 5.65,-12.62 12.62,-12.62l1776.84 0c6.97,0 12.62,5.66 12.62,12.62 0,6.97 -5.65,12.62 -12.62,12.62l0 0z"/>
   <path class="fil2" d="M2420.63 7707.7l-852.87 0c-6.97,0 -12.62,-5.65 -12.62,-12.62 0,-6.97 5.65,-12.62 12.62,-12.62l852.87 0c6.97,0 12.62,5.65 12.62,12.62 0,6.97 -5.65,12.62 -12.62,12.62l0 0z"/>
   <path class="fil2" d="M2420.63 7903.29l-852.87 0c-6.97,0 -12.62,-5.65 -12.62,-12.62 0,-6.97 5.65,-12.62 12.62,-12.62l852.87 0c6.97,0 12.62,5.65 12.62,12.62 0,6.97 -5.65,12.62 -12.62,12.62l0 0z"/>
   <path class="fil2" d="M2420.63 8098.88l-852.87 0c-6.97,0 -12.62,-5.65 -12.62,-12.62 0,-6.97 5.65,-12.62 12.62,-12.62l852.87 0c6.97,0 12.62,5.65 12.62,12.62 0,6.97 -5.65,12.62 -12.62,12.62l0 0z"/>
   <path class="fil6" d="M1171.9 7878.12c-7.89,-8.46 -18.95,-13.26 -30.52,-13.26 -11.05,0 -21.66,4.39 -29.48,12.18l-211.3 211.31c-5.6,5.58 -13.18,8.71 -21.08,8.71 -7.87,0 -15.43,-3.11 -21.01,-8.65l-31.3 -31.23c-7.81,-7.82 -18.41,-12.21 -29.46,-12.21 -11.05,0 -21.66,4.39 -29.47,12.2l-60.57 60.64 679.03 0 0 -8.64 -214.84 -231.05z"/>
   <path class="fil2" d="M1422.64 8130.43l-750.83 0c-10.45,-0.01 -18.92,-8.48 -18.93,-18.93l0 -441.66c0.01,-10.45 8.48,-18.92 18.93,-18.93l750.83 0c10.45,0.01 18.92,8.48 18.93,18.93l0 441.66c-0.01,10.45 -8.48,18.92 -18.93,18.93l0 0zm-731.9 -485.83c-3.48,0 -6.31,2.83 -6.31,6.31l0 441.66c0,3.48 2.83,6.31 6.31,6.31l750.83 0c3.48,0 6.3,-2.83 6.31,-6.31l0 -441.66c-0.01,-3.48 -2.83,-6.31 -6.31,-6.31l-750.83 0z"/>
  </g>
  <g id="_1231277319120">
   <path class="fil3" d="M1604.82 8515.23l750.83 0c10.45,0.01 18.92,8.48 18.93,18.93l0 441.66c-0.01,10.45 -8.48,18.92 -18.93,18.93l-750.83 0c-10.45,-0.01 -18.92,-8.48 -18.93,-18.93l0 -441.66c0.01,-10.45 8.48,-18.92 18.93,-18.93l0 0z"/>
   <path class="fil6" d="M1721.72 11190.82c-14.71,-15.76 -35.33,-24.71 -56.88,-24.71 -20.59,0 -40.37,8.19 -54.94,22.71l-393.78 393.79c-10.43,10.39 -24.56,16.24 -39.28,16.24 -14.66,0 -28.75,-5.8 -39.16,-16.13l-58.32 -58.2c-14.55,-14.56 -34.33,-22.75 -54.92,-22.75 -20.58,0 -40.36,8.19 -54.91,22.75l-112.87 112.99 1265.42 0.01 0 -16.11 -400.36 -430.59z"/>
   <path class="fil2" d="M2188.99 11661.03l-1399.24 0c-19.47,-0.02 -35.26,-15.8 -35.27,-35.27l0 -823.08c0.01,-19.47 15.8,-35.26 35.27,-35.27l1399.24 -0.01c19.47,0.02 35.25,15.81 35.27,35.28l0 823.08c-0.02,19.47 -15.8,35.25 -35.27,35.27l0 0zm-1363.96 -905.38c-6.49,0 -11.76,5.27 -11.76,11.76l0 823.07c0,6.49 5.27,11.75 11.76,11.76l1399.24 0c6.48,-0.01 11.75,-5.27 11.75,-11.76l0 -823.08c0,-6.48 -5.27,-11.75 -11.76,-11.75l-1399.23 0z"/>
   <path class="fil2" d="M606.83 10555.39l1776.84 0c6.97,0 12.62,5.65 12.62,12.62 0,6.97 -5.65,12.62 -12.62,12.62l-1776.84 0c-6.97,0 -12.62,-5.65 -12.62,-12.62 0,-6.97 5.65,-12.62 12.62,-12.62l0 0z"/>
   <path class="fil2" d="M606.83 10359.8l1776.84 0c6.97,0 12.62,5.65 12.62,12.62 0,6.97 -5.65,12.62 -12.62,12.62l-1776.84 0c-6.97,0 -12.62,-5.65 -12.62,-12.62 0,-6.97 5.65,-12.62 12.62,-12.62l0 0z"/>
   <path class="fil2" d="M606.83 10145.92l1776.84 0c6.97,0 12.62,5.65 12.62,12.62 0,6.97 -5.65,12.62 -12.62,12.62l-1776.84 0c-6.97,0 -12.62,-5.65 -12.62,-12.62 0,-6.97 5.65,-12.62 12.62,-12.62l0 0z"/>
   <path class="fil2" d="M606.83 9950.33l1776.84 0c6.97,0 12.62,5.65 12.62,12.62 0,6.97 -5.65,12.62 -12.62,12.62l-1776.84 0c-6.97,0 -12.62,-5.65 -12.62,-12.62 0,-6.97 5.65,-12.62 12.62,-12.62l0 0z"/>
   <path class="fil2" d="M606.83 9738.62l1776.84 0c6.97,0 12.62,5.65 12.62,12.62 0,6.97 -5.65,12.62 -12.62,12.62l-1776.84 0c-6.97,0 -12.62,-5.65 -12.62,-12.62 0,-6.97 5.65,-12.62 12.62,-12.62l0 0z"/>
   <path class="fil2" d="M606.83 9543.03l1776.84 0c6.97,0 12.62,5.65 12.62,12.62 0,6.97 -5.65,12.62 -12.62,12.62l-1776.84 0c-6.97,0 -12.62,-5.65 -12.62,-12.62 0,-6.97 5.65,-12.62 12.62,-12.62l0 0z"/>
   <path class="fil2" d="M606.83 9329.15l1776.84 0c6.97,0 12.62,5.65 12.62,12.62 0,6.97 -5.65,12.62 -12.62,12.62l-1776.84 0c-6.97,0 -12.62,-5.65 -12.62,-12.62 0,-6.97 5.65,-12.62 12.62,-12.62l0 0z"/>
   <path class="fil2" d="M606.83 9133.56l1776.84 0c6.97,0 12.62,5.65 12.62,12.62 0,6.97 -5.65,12.62 -12.62,12.62l-1776.84 0c-6.97,0 -12.62,-5.65 -12.62,-12.62 0,-6.97 5.65,-12.62 12.62,-12.62l0 0z"/>
   <path class="fil2" d="M606.83 8937.97l852.87 0c6.97,-0.01 12.62,5.65 12.62,12.61 0,6.97 -5.65,12.62 -12.62,12.62l-852.87 0c-6.97,0 -12.62,-5.65 -12.62,-12.62 0,-6.96 5.65,-12.62 12.62,-12.62l0 0.01z"/>
   <path class="fil2" d="M606.83 8742.37l852.87 0c6.97,0 12.62,5.65 12.62,12.62 0,6.97 -5.65,12.62 -12.62,12.62l-852.87 0c-6.97,0 -12.62,-5.65 -12.62,-12.62 0,-6.97 5.65,-12.62 12.62,-12.62l0 0z"/>
   <path class="fil2" d="M606.83 8546.78l852.87 0c6.97,0 12.62,5.65 12.62,12.62 0,6.97 -5.65,12.62 -12.62,12.62l-852.87 0c-6.97,0 -12.62,-5.65 -12.62,-12.62 0,-6.97 5.65,-12.62 12.62,-12.62l0 0z"/>
   <path class="fil6" d="M2098.6 8748.74c-7.89,-8.46 -18.95,-13.26 -30.52,-13.26 -11.05,0 -21.66,4.39 -29.48,12.18l-211.3 211.31c-5.6,5.57 -13.18,8.71 -21.08,8.71 -7.87,0 -15.43,-3.11 -21.01,-8.65l-31.3 -31.23c-7.81,-7.82 -18.41,-12.21 -29.46,-12.21 -11.05,0 -21.66,4.39 -29.47,12.2l-60.57 60.64 679.03 0 0 -8.64 -214.84 -231.05z"/>
   <path class="fil2" d="M2349.34 9001.05l-750.83 0c-10.45,-0.01 -18.92,-8.48 -18.93,-18.93l0 -441.66c0.01,-10.45 8.48,-18.92 18.93,-18.93l750.83 0c10.45,0.01 18.92,8.48 18.93,18.93l0 441.66c-0.01,10.45 -8.48,18.92 -18.93,18.93l0 0zm-731.9 -485.83c-3.48,0 -6.31,2.83 -6.31,6.31l0 441.66c0,3.48 2.83,6.31 6.31,6.31l750.83 0c3.48,0 6.3,-2.83 6.31,-6.31l0 -441.66c-0.01,-3.48 -2.83,-6.31 -6.31,-6.31l-750.83 0z"/>
  </g>
 </g>
</svg>
