<?xml version="1.0" encoding="UTF-8"?>
<!DOCTYPE svg PUBLIC "-//W3C//DTD SVG 1.1//EN" "http://www.w3.org/Graphics/SVG/1.1/DTD/svg11.dtd">
<!-- Creator: CorelDRAW 2019 (64 Bit) -->
<svg xmlns="http://www.w3.org/2000/svg" xml:space="preserve" width="84.6666mm" height="84.6666mm" version="1.1" shape-rendering="geometricPrecision" text-rendering="geometricPrecision" image-rendering="optimizeQuality" fill-rule="evenodd" clip-rule="evenodd"
viewBox="0 0 84666.6 84666.6"
 xmlns:xlink="http://www.w3.org/1999/xlink">
 <g id="Camada_x0020_1">
  <metadata id="CorelCorpID_0Corel-Layer"/>
  <g id="_2101991984320">
   <g>
    <polyline fill="none" stroke="#F58634" stroke-width="4233.3" stroke-linecap="round" stroke-linejoin="round" stroke-miterlimit="22.9256" points="138275.5,-28494.1 152695.3,1668.5 161650.1,-20224.4 "/>
    <polyline fill="none" stroke="#F58634" stroke-width="4233.3" stroke-linecap="round" stroke-linejoin="round" stroke-miterlimit="22.9256" points="178503.9,-28413.9 164084.1,1748.7 155129.3,-20144.2 "/>
   </g>
   <polyline fill="none" stroke="#F58634" stroke-width="2116.7" stroke-linecap="round" stroke-linejoin="round" stroke-miterlimit="22.9256" points="181737,-8725.3 191797.5,-13535 181736.9,-18344.7 "/>
   <polyline fill="none" stroke="#F58634" stroke-width="2116.7" stroke-linecap="round" stroke-linejoin="round" stroke-miterlimit="22.9256" points="135106.8,-8665 125046.3,-13474.7 135106.9,-18284.4 "/>
  </g>
  <g id="_2101991981728">
   <g>
    <polyline fill="none" stroke="#F58634" stroke-width="4233.3" stroke-linecap="round" stroke-linejoin="round" stroke-miterlimit="22.9256" points="138400.2,26370.9 152820,56533.5 167240.1,26370.7 "/>
    <polyline fill="none" stroke="#F58634" stroke-width="4233.3" stroke-linecap="round" stroke-linejoin="round" stroke-miterlimit="22.9256" points="155254,26451.1 169673.8,56613.7 184093.9,26450.9 "/>
   </g>
   <polyline fill="none" stroke="#F58634" stroke-width="2116.7" stroke-linecap="round" stroke-linejoin="round" stroke-miterlimit="22.9256" points="187266.8,46139.6 197327.3,41329.9 187266.7,36520.2 "/>
   <polyline fill="none" stroke="#F58634" stroke-width="2116.7" stroke-linecap="round" stroke-linejoin="round" stroke-miterlimit="22.9256" points="135229,46219.8 125168.5,41410.1 135229.1,36600.4 "/>
  </g>
  <path fill="#5433CC" d="M42333.3 9626.4c9011,0 17170.5,3644.5 23085.9,9539.4l26.9 26.2c108.3,108.2 215.7,217.4 322.5,327.2l-5649.4 10930.2c-223.8,448.1 -428.3,859.3 -663.6,1330.3 -132.9,266.1 -213.3,361.8 -347,610.1 -995.6,1848.9 -2839.5,5786.1 -3710.4,7216.4 -747.9,1228.2 -1378.3,2643.1 -2031.7,3950.1l-2047.4 3934.4c-235.5,475.6 -427.8,855 -664.4,1329.6 -244,489.6 -447.2,813.1 -691.3,1302.7 -236.5,474.6 -428.8,854.1 -664.3,1329.6 -235.6,476 -446.9,813.1 -691.6,1302.5 -272.2,544.6 -1226.9,2219.4 -1329.2,2658.5l-159.5 0c-51.9,-623.7 -2118.4,-5114.3 -2537,-6322.8 -89.9,-259.3 -89.1,-122.9 22.5,-409.7l2070.6 -5037c253.9,-636.7 603.4,-1431.4 603.4,-2108.3 0,-1920 -2951.8,-2780.3 -3954.8,-365.8 -239.2,575.8 -864,1801.8 -910.4,2359.7l-159.6 0c-29.1,-350.7 -1020.9,-2860.8 -1532.2,-3333 -1168.2,-1078.9 -3333,-407.9 -3333,1658.1 0,719.1 2356,6010 2674,6826.3 163.2,419.3 -283.8,1153.4 -463.4,1605.4 -234.1,589.2 -465.8,1120.9 -695,1697.7 -226.7,570.3 -456,1097.4 -695.1,1697.7 -158.5,398.2 -630.4,1364.3 -661,1731.7l-159.5 0c-106.4,-456.8 -438.8,-890.4 -639.1,-1275.1l-17851.6 -34616.5c5941.5,-6103.3 14245.1,-9895.6 23435.7,-9895.6zm18822.8 34031.9c0,1135.7 691,1104.1 2418.4,1968.4 330.1,165.1 622.8,268.1 931.7,424.1 304.6,153.7 576.5,290 902.7,453.2 330.2,165.2 622.9,268.2 931.8,424.1 411.6,207.8 1516.5,785.1 1913.8,877.7l-2791.7 1435.3c-304.6,153.8 -576.5,290 -902.7,453.2 -330.2,165.2 -622.8,268.1 -931.8,424.1 -1746.2,881.6 -2472.2,836.6 -2472.2,1994.3 0,505.7 508.2,877.3 1036.9,877.3 379.6,0 2042.3,-926.7 2483.7,-1105.4l6157.2 -2935.2c611.1,-301.7 850.3,-456.8 850.3,-1143.6 0,-865.2 -1394,-1213.8 -2048.1,-1541.1l-4902.1 -2355.9c-478.3,-193.7 -2168.2,-1127.8 -2541,-1127.8 -528.7,0 -1036.9,371.8 -1036.9,877.3zm-48173.7 4147.5c0,1137 964,1208.7 2394,1912.9l5555.4 2659.7c362.5,182.7 1034,575.4 1428.5,652.8 1141.9,223.9 1636.3,-1407.9 579.6,-1943l-6607.6 -3122.9c16,-11.2 42.9,-44.2 50.8,-28.9l3709 -1794.3c681.3,-275.9 1210.4,-623.8 1891.8,-899.7 1107.1,-448.4 1526.6,-643 1526.6,-1504.3 0,-669.3 -555.7,-877.3 -1116.6,-877.3 -262.7,0 -5270,2436.8 -6087.3,2845.7l-2446.6 1142.5c-358.7,156.2 -877.6,455.2 -877.6,956.8zm55607.3 -24977c4052.1,5445.8 6450.4,12194.9 6450.4,19504.5 0,18063.4 -14643.3,32706.9 -32706.8,32706.9 -18063.5,0 -32706.8,-14643.5 -32706.8,-32706.9 0,-7308.2 2397.7,-14055.9 6448.3,-19501.2 479.4,942.7 941.1,1806.4 1427.3,2778.6l2923.4 5690.4c161.6,323.3 300.5,513.9 453.5,822.7 2040.8,4114.8 4249.9,8160.9 6328.1,12255.5l4624.6 9014c157.9,318.4 267.7,476.5 425.9,770.4l2126.4 4174.5c316.4,638 1383.1,2780.7 1714.5,3230.4 798.5,1083.6 2500.6,942.2 3239.2,-138 511.8,-748.4 1710.1,-4122.8 2195.9,-5221.4 238.8,-539.9 585.9,-1257 719.9,-1832.4l159.6 0c62.5,268.5 222.2,595.2 330.4,865.9 114.8,287.1 227.6,593.1 365,911.2 260.2,602.4 455.9,1148.3 717.8,1754.6 400.2,926.6 970.8,2710.9 1470.8,3474.2 320.5,489.3 789.5,858.5 1533.2,940.6 1109.6,122.5 1739.5,-647.6 2150.7,-1458.4 159.4,-314.2 267.1,-537.9 424.2,-851.9 148.9,-297.9 246.5,-501.1 397.6,-798.8 1799.2,-3545 3728.2,-7048.8 5505.3,-10605.6 577,-1154.8 1139.2,-2201.5 1700.7,-3324.2l2924.1 -5689.7c167.9,-339.2 288.9,-498.6 453.4,-822.7l3375 -6594.8c157.1,-317.5 282.3,-492.3 426.6,-769.6l4401.8 -8578.8z"/>
  <path fill="#5433CC" d="M162738.9 68646.3c9565.6,0 18227.3,3868.8 24506.8,10126.5l28.5 27.8c115,114.9 229,230.8 342.4,347.3l-5997.1 11603c-237.6,475.7 -454.7,912.2 -704.5,1412.1 -141.1,282.5 -226.4,384.1 -368.3,647.7 -1056.9,1962.7 -3014.3,6142.2 -3938.8,7660.5 -793.9,1303.8 -1463.1,2805.8 -2156.8,4193.3l-2173.4 4176.5c-250,504.9 -454.1,907.6 -705.2,1411.5 -259.1,519.7 -474.8,863.1 -733.9,1382.8 -251.1,503.9 -455.2,906.7 -705.2,1411.5 -250.1,505.3 -474.4,863.1 -734.1,1382.6 -289,578.2 -1302.5,2356 -1411.1,2822.2l-169.3 0c-55.1,-662.1 -2248.8,-5429.1 -2693.1,-6712 -95.4,-275.3 -94.6,-130.5 23.9,-434.9l2198 -5347c269.5,-675.9 640.5,-1519.5 640.5,-2238.1 0,-2038.2 -3133.4,-2951.4 -4198.2,-388.3 -253.9,611.2 -917.1,1912.7 -966.4,2504.9l-169.4 0c-30.9,-372.2 -1083.7,-3036.8 -1626.5,-3538.1 -1240.1,-1145.3 -3538.1,-433 -3538.1,1760.1 0,763.4 2501,6379.9 2838.5,7246.5 173.3,445.1 -301.2,1224.4 -491.9,1704.2 -248.5,625.5 -494.5,1189.9 -737.8,1802.2 -240.6,605.4 -484,1164.9 -737.8,1802.2 -168.3,422.7 -669.2,1448.3 -701.7,1838.3l-169.3 0c-113,-484.9 -465.9,-945.2 -678.5,-1353.6l-18950.3 -36747.1c6307.2,-6478.9 15121.9,-10504.6 24878.1,-10504.6zm19981.3 36126.5c0,1205.5 733.5,1172 2567.2,2089.5 350.4,175.3 661.2,284.6 989.1,450.2 323.3,163.2 611.9,307.9 958.2,481.1 350.5,175.4 661.3,284.7 989.2,450.2 436.9,220.6 1609.8,833.4 2031.6,931.7l-2963.6 1523.7c-323.3,163.2 -611.9,307.8 -958.2,481.1 -350.5,175.3 -661.2,284.6 -989.2,450.2 -1853.6,935.8 -2624.3,888.1 -2624.3,2117 0,536.8 539.5,931.3 1100.7,931.3 403,0 2168,-983.7 2636.5,-1173.4l6536.2 -3115.9c648.7,-320.3 902.6,-484.9 902.6,-1214 0,-918.4 -1479.8,-1288.5 -2174.1,-1635.9l-5203.8 -2500.9c-507.8,-205.6 -2301.7,-1197.2 -2697.4,-1197.2 -561.2,0 -1100.7,394.6 -1100.7,931.3zm-51138.6 4402.7c0,1207 1023.3,1283.1 2541.3,2030.7l5897.3 2823.4c384.8,193.9 1097.7,610.8 1516.4,692.9 1212.2,237.7 1737,-1494.5 615.3,-2062.6l-7014.3 -3315.1c17,-11.8 45.6,-46.9 54,-30.6l3937.2 -1904.8c723.3,-292.9 1284.9,-662.2 2008.3,-955.1 1175.2,-475.9 1620.5,-682.5 1620.5,-1596.8 0,-710.5 -589.9,-931.3 -1185.3,-931.3 -278.9,0 -5594.3,2586.7 -6461.9,3020.8l-2597.2 1212.8c-380.8,165.8 -931.6,483.3 -931.6,1015.7zm59029.7 -26514.3c4301.5,5781 6847.4,12945.5 6847.4,20705 0,19175.2 -15544.6,34719.9 -34719.8,34719.9 -19175.2,0 -34719.8,-15544.7 -34719.8,-34719.9 0,-7758 2545.3,-14921 6845.2,-20701.5 508.9,1000.8 999,1917.6 1515.1,2949.7l3103.4 6040.6c171.5,343.2 318.9,545.5 481.4,873.3 2166.4,4368.1 4511.4,8663.2 6717.5,13009.8l4909.3 9568.8c167.6,338 284.1,505.8 452.1,817.8l2257.2 4431.5c335.9,677.2 1468.3,2951.8 1820.1,3429.2 847.6,1150.3 2654.5,1000.2 3438.5,-146.5 543.3,-794.5 1815.4,-4376.5 2331.1,-5542.8 253.5,-573.1 621.9,-1334.3 764.2,-1945.2l169.4 0c66.4,285.1 235.9,631.9 350.7,919.2 121.9,304.8 241.7,629.6 387.5,967.3 276.2,639.5 484,1219 762,1862.6 424.8,983.7 1030.5,2877.8 1561.3,3688.1 340.2,519.4 838.1,911.3 1627.6,998.4 1177.9,130.1 1846.5,-687.4 2283,-1548.1 169.2,-333.6 283.6,-571 450.3,-904.4 158.1,-316.2 261.7,-531.9 422.1,-847.9 1910,-3763.2 3957.7,-7482.7 5844.2,-11258.4 612.5,-1225.8 1209.3,-2337 1805.3,-3528.8l3104.1 -6039.9c178.2,-360 306.7,-529.2 481.3,-873.3l3582.7 -7000.7c166.8,-337 299.7,-522.6 452.9,-817l4672.7 -9106.8z"/>
 </g>
</svg>
