<svg width="66" height="66" viewBox="0 0 66 66" fill="none" xmlns="http://www.w3.org/2000/svg">
<g clip-path="url(#clip0)">
<path fill-rule="evenodd" clip-rule="evenodd" d="M32.7068 0C41.7178 0 49.8773 3.6445 55.7927 9.5394L55.8196 9.5656C55.9279 9.6738 56.0353 9.783 56.1421 9.8928L50.4927 20.823C50.2689 21.2711 50.0644 21.6823 49.8291 22.1533C49.6962 22.4194 49.6158 22.5151 49.4821 22.7634C48.4865 24.6123 46.6426 28.5495 45.7717 29.9798C45.0238 31.208 44.3934 32.6229 43.74 33.9299L41.6926 37.8643C41.4571 38.3399 41.2648 38.7193 41.0282 39.1939C40.7842 39.6835 40.581 40.007 40.3369 40.4966C40.1004 40.9712 39.9081 41.3507 39.6726 41.8262C39.437 42.3022 39.2257 42.6393 38.981 43.1287C38.7088 43.6733 37.7541 45.3481 37.6518 45.7872H37.4923C37.4404 45.1635 35.3739 40.6729 34.9553 39.4644C34.8654 39.2051 34.8662 39.3415 34.9778 39.0547L37.0484 34.0177C37.3023 33.381 37.6518 32.5863 37.6518 31.9094C37.6518 29.9894 34.7 29.1291 33.697 31.5436C33.4578 32.1194 32.833 33.3454 32.7866 33.9033H32.627C32.5979 33.5526 31.6061 31.0425 31.0948 30.5703C29.9266 29.4914 27.7618 30.1624 27.7618 32.2284C27.7618 32.9475 30.1178 38.2384 30.4358 39.0547C30.599 39.474 30.152 40.2081 29.9724 40.6601C29.7383 41.2493 29.5066 41.781 29.2774 42.3578C29.0507 42.9281 28.8214 43.4552 28.5823 44.0555C28.4238 44.4537 27.9519 45.4198 27.9213 45.7872H27.7618C27.6554 45.3304 27.323 44.8968 27.1227 44.5121L9.2711 9.8956C15.2126 3.7923 23.5162 0 32.7068 0V0ZM51.5296 34.0319C51.5296 35.1676 52.2206 35.136 53.948 36.0003C54.2781 36.1654 54.5708 36.2684 54.8797 36.4244C55.1843 36.5781 55.4562 36.7144 55.7824 36.8776C56.1126 37.0428 56.4053 37.1458 56.7142 37.3017C57.1258 37.5095 58.2307 38.0868 58.628 38.1794L55.8363 39.6147C55.5317 39.7685 55.2598 39.9047 54.9336 40.0679C54.6034 40.2331 54.3108 40.336 54.0018 40.492C52.2556 41.3736 51.5296 41.3286 51.5296 42.4863C51.5296 42.992 52.0378 43.3636 52.5665 43.3636C52.9461 43.3636 54.6088 42.4369 55.0502 42.2582L61.2074 39.323C61.8185 39.0213 62.0577 38.8662 62.0577 38.1794C62.0577 37.3142 60.6637 36.9656 60.0096 36.6383L55.1075 34.2824C54.6292 34.0887 52.9393 33.1546 52.5665 33.1546C52.0378 33.1546 51.5296 33.5264 51.5296 34.0319ZM3.3559 38.1794C3.3559 39.3164 4.3199 39.3881 5.7499 40.0923L11.3053 42.752C11.6678 42.9347 12.3393 43.3274 12.7338 43.4048C13.8757 43.6287 14.3701 41.9969 13.3134 41.4618L6.7058 38.3389C6.7218 38.3277 6.7487 38.2947 6.7566 38.31L10.4656 36.5157C11.1469 36.2398 11.676 35.8919 12.3574 35.616C13.4645 35.1676 13.884 34.973 13.884 34.1117C13.884 33.4424 13.3283 33.2344 12.7674 33.2344C12.5047 33.2344 7.4974 35.6712 6.6801 36.0801L4.2335 37.2226C3.8748 37.3788 3.3559 37.6778 3.3559 38.1794ZM58.9632 13.2024C63.0153 18.6482 65.4136 25.3973 65.4136 32.7069C65.4136 50.7703 50.7703 65.4138 32.7068 65.4138C14.6433 65.4138 0 50.7703 0 32.7069C0 25.3987 2.3977 18.651 6.4483 13.2057C6.9277 14.1484 7.3894 15.0121 7.8756 15.9843L10.799 21.6747C10.9606 21.998 11.0995 22.1886 11.2525 22.4974C13.2933 26.6122 15.5024 30.6583 17.5806 34.7529L22.2052 43.7669C22.3631 44.0853 22.4729 44.2434 22.6311 44.5373L24.7575 48.7118C25.0739 49.3498 26.1406 51.4925 26.472 51.9422C27.2705 53.0258 28.9726 52.8844 29.7112 51.8042C30.223 51.0558 31.4213 47.6814 31.9071 46.5828C32.1459 46.0429 32.493 45.3258 32.627 44.7504H32.7866C32.8491 45.0189 33.0088 45.3456 33.117 45.6163C33.2318 45.9034 33.3446 46.2094 33.482 46.5275C33.7422 47.1299 33.9379 47.6758 34.1998 48.2821C34.6 49.2087 35.1706 50.993 35.6706 51.7563C35.9911 52.2456 36.4601 52.6148 37.2038 52.6969C38.3134 52.8194 38.9433 52.0493 39.3545 51.2385C39.5139 50.9243 39.6216 50.7006 39.7787 50.3866C39.9276 50.0887 40.0252 49.8855 40.1763 49.5878C41.9755 46.0428 43.9045 42.539 45.6816 38.9822C46.2586 37.8274 46.8208 36.7807 47.3823 35.658L50.3064 29.9683C50.4743 29.6291 50.5953 29.4697 50.7598 29.1456L54.1348 22.5508C54.2919 22.2333 54.4171 22.0585 54.5614 21.7812L58.9632 13.2024Z" fill="#5433CC"/>
</g>
<defs>
<clipPath id="clip0">
<rect width="65.4136" height="65.4138" fill="white"/>
</clipPath>
</defs>
</svg>
